<!DOCTYPE svg PUBLIC "-//W3C//DTD SVG 1.1//EN" "http://www.w3.org/Graphics/SVG/1.1/DTD/svg11.dtd">
<!-- Uploaded to: SVG Repo, www.svgrepo.com, Transformed by: SVG Repo Mixer Tools -->
<svg fill="#ffffff" width="81px" height="81px" viewBox="0 0 32.00 32.00" version="1.1" xmlns="http://www.w3.org/2000/svg" stroke="#ffffff" transform="rotate(0)" stroke-width="0.00032">
<g id="SVGRepo_bgCarrier" stroke-width="0"/>
<g id="SVGRepo_tracerCarrier" stroke-linecap="round" stroke-linejoin="round" stroke="#CCCCCC" stroke-width="0.128"/>
<g id="SVGRepo_iconCarrier"> <title>view</title> <path d="M12.406 13.844c1.188 0 2.156 0.969 2.156 2.156s-0.969 2.125-2.156 2.125-2.125-0.938-2.125-2.125 0.938-2.156 2.125-2.156zM12.406 8.531c7.063 0 12.156 6.625 12.156 6.625 0.344 0.438 0.344 1.219 0 1.656 0 0-5.094 6.625-12.156 6.625s-12.156-6.625-12.156-6.625c-0.344-0.438-0.344-1.219 0-1.656 0 0 5.094-6.625 12.156-6.625zM12.406 21.344c2.938 0 5.344-2.406 5.344-5.344s-2.406-5.344-5.344-5.344-5.344 2.406-5.344 5.344 2.406 5.344 5.344 5.344z"/> </g>
</svg>